Projeto Thomaz Farkas 3 - Guido Araújo, Sergio Muniz, Roberto Duarte, Miguel Rio Branco

Project Thomaz Farkas is a collection of 39 documentaries produced by Thomas Farkas  in the 1960s and 1970s, featuring various cultural events of Brazil linked to the specific reality of each region. The documentaries were organized in a box containing seven discs, and include a short interview with the participation of renowned photographer, producer and documentary filmmaker, exposing a broad universe of Brazilian culture.

The Disc 3 contains the following documentaries:

Guido Araújo - A Morte das Velas do Recôncavo (1976)
Guido Araújo - Feira da Banana (1973)
Miguel Rio Branco - Trio Elétrico (1978)
Roberto Duarte - Ensaio (1975)
Sergio Muniz - De Raízes e Rezas, Entre Outros (1972)
Sergio Muniz - Roda & Outras Estórias (1965)

All films have Portuguese audio, and no subtitles. There's a 300 dpi scan of the DVD cover included.

   General
      Complete name : Projeto Thomaz Farkas - Guido Araújo, Sergio Muniz, Roberto Duarte, Miguel Rio Branco.avi
      Format : AVI
      Format/Info : Audio Video Interleave
      File size : 1.54 GiB
      Duration : 1h 53mn
      Overall bit rate : 1 954 Kbps
      Writing application : FairUse Wizard - http://fairusewizard.com
      Writing library : VirtualDub build 32593/release
   Video #0
      ID : 0
      Format : MPEG-4 Visual
      Format profile : AdvancedSimple@L5
      Format settings, BVOP : Yes
      Format settings, QPel : No
      Format settings, GMC : No warppoints
      Format settings, Matrix : Default (MPEG)
      Muxing mode : Packed bitstream
      Codec ID : XVID
      Codec ID/Hint : XviD
      Duration : 1h 53mn
      Bit rate : 1 721 Kbps
      Width : 640 pixels
      Height : 464 pixels
      Display aspect ratio : 1.379
      Frame rate : 23.976 fps
      Resolution : 24 bits
      Colorimetry : 4:2:0
      Scan type : Progressive
      Bits/(Pixel*Frame) : 0.242
      Stream size : 1.36 GiB (88%)
      Writing library : XviD 1.2.0.dev47 (UTC 2006-11-01)
   Audio #1
      ID : 1
      Format : AC-3
      Format/Info : Audio Coding 3
      Codec ID : 2000
      Duration : 1h 53mn
      Bit rate mode : Constant
      Bit rate : 224 Kbps
      Channel(s) : 2 channels
      Channel positions : L R
      Sampling rate : 48.0 KHz
      Stream size : 181 MiB (11%)
      Alignment : Split accross interleaves
      Interleave, duration : 42 ms (1.00 video frame)
      Interleave, preload duration : 500 ms

All films were ripped individually. The specs refer to the films assembled together.
